# xmcd CD database file
# Copyright (C) 1995-1998 Ti Kan
#
# Track frame offsets:
#	150
#	14472
#	30745
#	46080
#	59495
#	75697
#	87710
#	101885
#	115807
#	128562
#	141110
#	154165
#	167507
#	182017
#	195632
#	209767
#	224500
#	237432
#
# Disc length: 3339 seconds
#
# Revision: 1
# Processed by: cddbd v1.4b41PL1 Copyright (c) Steve Scherf et al.
# Submitted via: CDex 1.30
#
DISCID=050d0912
DTITLE=Roosevelt Sykes - The Honey Dripper (1929-1941) [Story of the Blues]
DYEAR=1988
DGENRE=Blues
TTITLE0=' 44' BLUES
TTITLE1=I'm Tired Of Being Mistreated
TTITLE2=Mosby Stomp
TTITLE3=Big Legs Ida Blues
TTITLE4=Dresser With The Drawers
TTITLE5=She Showed It All
TTITLE6=Dirty Mother For You
TTITLE7=Soft And Mellow (Stella Blues)
TTITLE8=The Honey Dripper
TTITLE9=Drunken Gambler
TTITLE10=Let Me Hang My Stockings In Your Christmas Tree
TTITLE11=Journey From The Germs
TTITLE12=You Can't Fix It Back
TTITLE13=Love Will Wear You Down
TTITLE14=New Mistake In Life
TTITLE15=We Will Never Make The Grade
TTITLE16=Ups And Downs Blues
TTITLE17=Let The Black Have His Way
EXTD=\n\nYEAR: 1988  ID3G:   0
EXTT0=
EXTT1=
EXTT2=
EXTT3=
EXTT4=
EXTT5=
EXTT6=
EXTT7=
EXTT8=
EXTT9=
EXTT10=
EXTT11=
EXTT12=
EXTT13=
EXTT14=
EXTT15=
EXTT16=
EXTT17=
PLAYORDER=
